<svg xmlns="http://www.w3.org/2000/svg" width="760" height="384" viewBox="0 0 760 384">
  <path d="M407.31,286.1H362.8c-3.68,5.54-6.48,11.22-7.52,18A19.48,19.48,0,0,1,335,321c-10.06-.56-18.71-8.15-18.57-18.68a83.21,83.21,0,0,1,4.68-27.26c7.32-20,15.53-39.66,24.3-59,7.65-16.94,16.4-33.4,25-49.91,4.09-7.88,10.2-13.76,18.95-16.8,10.45-3.62,20-1.38,26.95,7.07a36.79,36.79,0,0,1,4.05,5.69c15.32,28.12,29.85,56.43,33.4,89.1,1.71,15.8,4.39,31.52,11.07,46.4,5.75,12.82-.54,27-13,32.6a24.82,24.82,0,0,1-32.58-11.1c-3.27-6.1-5.38-12.85-7.76-19.4C409.87,295.33,408.73,290.82,407.31,286.1Zm-25.15-42.7h20.68c-2.77-9.24-5.17-17.21-8.12-27C387.9,225.79,386.13,234.79,382.16,243.4Z"/>
  <path d="M230.21,317.47H220a299.73,299.73,0,0,0-6.56,45.34c-.9,13.65-10.69,22.36-23.74,21.23-8.83-.76-14.76-5.63-18.11-13.63C167.59,361,166.71,351,167.88,341a515.68,515.68,0,0,1,19.81-94.54c2.13-6.82,5.34-12.76,11.12-17.31,7.65-6,15.6-7.49,23.13-3.43,8.27,4.47,11.59,11.75,10.53,20.84-.92,7.91-2.46,15.75-3.93,24.89L245,272.61c3.64-11.22,6.65-21.74,10.49-32,3.15-8.35,6.6-16.73,11.16-24.37,5-8.45,14.94-10.92,23.61-7.38s13.74,11.91,12,21.75c-5,27.47-10.59,54.79-19.81,81.29-4.58,13.13-7.73,26.78-11,40.32-2.21,9.08-8.47,15.77-17.32,17-8.47,1.19-16.75-3.77-20.78-12.38-4.36-9.33-5-19.21-4.34-29.27C229.15,324.67,229.67,321.73,230.21,317.47Z"/>
  <path d="M615,285.89c-2.58,12-4.41,24.2-8,35.87a56.86,56.86,0,0,1-11,19.95c-15.27,17.64-33.8,31-56.53,37.54a60.93,60.93,0,0,1-34.56-.24c-15.36-4.58-25.55-15.59-27-31.43-3.4-37.5,5.09-71.89,30-101.38,11.54-13.68,27.25-18.7,43.57-22,10.78-2.21,21.1,1,29.92,8,4.17,3.31,8.33,6.64,12.49,9.95C607.88,253.27,615,267.54,615,285.89Zm-98,54.38c9.35,1.84,15.81-.11,22.11-3.7,16.81-9.57,28.37-22,29.59-42.94.53-9.06-.42-15-8.31-20-5-3.22-9-5.29-14.21-1.14a6.88,6.88,0,0,1-3.7,1.36c-6.3.31-9.11,4.78-11.76,9.51-6.11,10.91-9.26,22.78-11.16,35C518.4,325.44,517.82,332.62,516.94,340.27Z"/>
  <path d="M-.43,290.88c2.89-25.73,9.9-56.6,32.65-81.46,16-17.51,35.39-30.24,58.07-37.3,5.46-1.7,11.93-1.69,17.62-.7,9,1.58,14.87,9.92,14.83,18.83s-6.15,17.48-14.9,19C86.6,212.8,73.39,227.28,62,243.31s-15.74,35-16.86,54.58c-.35,6.15.86,11.8,6.79,14.25,6.5,2.69,13.64,3.88,20-.81,3.46-2.55,6.37-5.83,9.61-8.69,12.18-10.78,29.28-10.12,39.2,1.47,10.18,11.89,8.45,28.15-4.23,38.9-3.3,2.79-6.74,5.43-10.23,8-34.42,25-81.56,10.7-98.83-19.21C1.5,321.58-1.12,312.13-.43,290.88Z"/>
  <path d="M690.48,167.35c8.46,4.15,15.66,7.45,22.64,11.16,7.63,4,15.5,7.83,22.49,12.81,28.47,20.24,31.44,54.47,6.31,79-15.19,14.81-33.64,23.68-55.57,23.4-12.66-.16-21-7.42-21.51-18.74-.53-11.9,7.39-20.53,20.47-20.81,12.26-.26,20.66-6.77,27.74-15.42,5.46-6.67,4.75-9.86-2.23-14.8a110.28,110.28,0,0,0-13.69-8.15c-11.56-5.87-23.35-11.31-34.88-17.25-21.49-11.06-23.39-27.07-12.69-44.78,12.86-21.28,33-33.29,57.76-36.9,9-1.31,17.16,1.46,24.17,7.17a19.67,19.67,0,0,1,5.33,23.54c-3.5,7.66-12.24,13.27-20.39,11C706.13,155.71,699.24,160.43,690.48,167.35Z"/>
  <path d="M485.6,62c14-15.91,26.87-30.65,39.86-45.3,3-3.36,5.73-8.31,11.36-5.89,5.32,2.29,6.59,7.68,6.07,12.7-1.08,10.58-3.31,21-4.44,31.61-1.3,12.22-2.29,24.5-2.7,36.78-.27,8.4,1,9.62,9,11.56,3.59.87,6.66,2,6.06,6.28-.52,3.68-3.69,4.21-6.83,4.49-10.14.9-17.8-3.54-18.6-13.67-1-12.48,0-25.21,1.08-37.74,1-11.14,3.23-22.16,3.93-33.72C517.26,41,504.78,53.18,496.76,69.14c-1.64,3.27-3.07,6.72-5.19,9.66-4.49,6.28-10.56,5.49-13.8-1.62A32.14,32.14,0,0,1,476,71.47c-3.18-13.24-6.31-26.5-9.52-39.74-.12-.5-.9-.83-2.08-1.85C463.44,40,463,49.73,461.6,59.28c-2.38,16.13-5.38,32.16-8.13,48.23-.17,1-.09,2.33-.69,2.84-1.62,1.4-3.63,3.46-5.32,3.32s-4.17-2.69-4.24-4.27a49.09,49.09,0,0,1,1.25-12.82c4.41-19.87,8.13-39.75,7.9-60.29-.08-6.47,1.63-13.24,3.86-19.39,2.65-7.34,9.87-8.54,14.89-2.48,3,3.65,4.87,8.62,6.16,13.3C480.37,38.91,482.81,50.28,485.6,62Z"/>
  <path d="M405.5,15.73c-9.41,5.63-14.58,12.38-19.06,19.7-2.94,4.82-5.4,9.94-8.34,14.77a34,34,0,0,1-5.54,7c-4.64,4.37-9.73,3.81-13.5-1.48-6.58-9.24-12.56-18.82-15.3-30.51-.74,2.4-1.55,4.79-2.2,7.21C335.92,53.37,332.64,74.72,330,96.2a34.52,34.52,0,0,1-1.84,7.71c-1.16,3.14-3.76,5.38-6.93,3.62-1.76-1-3.5-4.29-3.22-6.27q3.15-22.19,7.22-44.24c2.32-12.42,5.2-24.73,7.91-37.07a39.75,39.75,0,0,1,2.25-7.64c3.53-7.87,10.51-9,15.3-1.74,3.2,4.83,4.77,10.87,6.44,16.56,2.8,9.5,3.12,10.57,10.39,18.89,1.88-2.91,3.78-5.48,5.28-8.27A103.91,103.91,0,0,1,399.25,5.54c3.58-2.86,6.95-7.08,12.21-4.59,5.5,2.61,5.29,8.2,4.94,13.13-.77,11-1.86,21.89-3.15,32.79-1.68,14.2-3.69,28.36-5.56,42.53-.21,1.65-.33,3.32-.68,4.95-.77,3.63-2.57,6.37-6.8,5.51s-4.83-4.14-4.31-7.74c2.13-14.47,4.54-28.91,6.43-43.41C403.68,38.35,404.36,27.9,405.5,15.73Z"/>
  <path d="M597.86,33.15c-1.15,10.71-2.13,19.63-3,28.55-.08.89.54,1.84,1.08,3.55,4.54-1.19,9-2.32,13.38-3.51,2.25-.61,4.44-1.47,6.71-2,3.55-.75,7-.47,7.74,3.92.64,3.6-1.6,5.39-4.94,6.26-6.76,1.77-13.4,4.09-20.24,5.42-4.75.92-7,2.94-7.16,7.8-.22,8.21-.72,16.41-1.1,24.67,10.41-1.55,19.44-2.94,28.49-4.21,1.62-.23,3.65-.55,4.9.18,1.8,1,4.07,2.92,4.25,4.64s-2,3.66-3.15,5.48a1.23,1.23,0,0,1-.91.34c-11.11.09-21.54,3.42-32.16,6.19-7,1.81-12.14-3.11-12.36-10.69a146.45,146.45,0,0,1,.73-21c1.85-16.16,4.24-32.26,6.29-48.39a36,36,0,0,0,0-7.9c-.63-6.57-.08-7.78,6-8.85q16.2-2.86,32.49-5.23a12.6,12.6,0,0,1,6.73.76c3.91,1.79,4,6.91,0,8.57-3,1.25-6.45,1.28-9.72,1.77C614.09,30.77,606.23,31.91,597.86,33.15Z"/>
  <path d="M194.93,74c-3.78,0-6.79.36-9.68-.1S179.17,72.72,177,71c-1.66-1.3-3.12-4.85-2.45-6.5s4.69-3.36,6.28-2.71c8.14,3.32,15.67,1.45,23.31-1.3,1.24-.44,2.77-1.09,3.84-.72a8.82,8.82,0,0,1,4.53,3.14c.57,1-.16,3.92-1.05,4.32-5.78,2.59-5.23,7.64-5.77,12.56-1.64,14.87-16,28.6-30.74,29.69s-29-11.1-29.09-26.59C145.78,61,153.87,42,170.22,27a22.94,22.94,0,0,1,20.44-5.68c1.94.37,4.26,3,4.77,5,.31,1.26-2.36,4.69-3.81,4.77-22.33,1.16-26.65,19.38-33,35.14-2.12,5.3-2.25,11.89-1.58,17.69,1.44,12.3,14.12,18.29,24.76,12.06C189.62,91.45,195.44,85.35,194.93,74Z"/>
  <path d="M267.4,26.55c1.49,19.91-4.41,37.82-6.76,56.21-.87,6.81-1.1,13.71-1.72,21.81,5.28-1.32,9.1-2.2,12.87-3.25,1.91-.53,3.7-1.5,5.61-2,3.35-1,6.18.15,7.29,3.4s-.71,6-3.94,6.94c-6.67,2-13.36,4.07-20.18,5.44s-13.81,2.1-20.75,2.81c-3.82.39-8.89,1.6-9.76-3.92s3.94-5.9,8-6.5c2.92-.44,5.79-1.18,9.54-2,1.13-25,9.55-49.14,9.31-76.11-5.07,1.47-8.4,2.53-11.78,3.39-2.23.57-4.61,1.42-6.76,1.08-1.62-.25-3.8-1.94-4.21-3.42A5.83,5.83,0,0,1,236,25.32a21.89,21.89,0,0,1,8.11-3.57c13.33-2.8,26.71-5.31,40.08-7.91a16.24,16.24,0,0,1,2-.26c3.33-.29,6.27.55,6.57,4.32S290.27,23,287,23.56c-1.64.26-3.32.26-5,.53C277.52,24.81,273,25.61,267.4,26.55Z"/>
</svg>
