<svg xmlns="http://www.w3.org/2000/svg" width="820" height="460" viewBox="0 0 820 460">
  <path d="M321.11,305.86c-25.09,2.67-49.46-2-73.43,4.47a21.42,21.42,0,0,1-26.52-15.2C217.94,283,224,271,236.69,268a268.36,268.36,0,0,1,39.37-5.73c15.57-1.28,31.26-1.17,46.88-2a48.89,48.89,0,0,0,13.69-2.56c15.66-5.56,33.69,11,33.44,25.38-.35,19.77-2.61,39.2-9.6,57.8-11.39,30.29-28.62,56.86-50.33,80.88-16.73,18.51-37.34,28.74-61.46,32.12a225.59,225.59,0,0,1-35.83,1.66c-18.64-.38-37.25-1.75-55.86-2.68-23.85-1.18-45.47-9.7-66.22-20.63-10-5.26-20.14-10.64-29-17.57C30.52,390.14,9.5,359.06,4.66,318.72c-2.3-19.17-4.32-38.4-5.4-57.66-1.55-27.56,5-54.24,10.6-81,4.92-23.51,11.68-46.29,21.63-68.35,23.89-53,66-81,121.36-91.87,33.45-6.56,66.39-3.37,98.62,6.69a92.9,92.9,0,0,1,25.6,13.16c13.82,9.82,27,20.57,40,31.49a138.22,138.22,0,0,1,39.79,54.24c2.76,6.79,3.39,15,3,22.39-.54,10.09-9,17.07-18.73,17.42-9.93.36-18.06-6.8-20.29-17.16a34.43,34.43,0,0,0-4.65-11.68c-11.37-17-24.81-32.13-41.81-43.83a71.72,71.72,0,0,1-8.52-6.92c-14.25-13.49-31.25-21-50.41-24.59-34.59-6.55-67.53-2.52-99,13.48a95,95,0,0,0-41.09,39.54c-11.72,21.12-20.85,43.09-24.6,67.12-3.33,21.35-8.21,42.53-10.2,64-2.53,27.34,1.69,54.49,6.87,81.38A34.73,34.73,0,0,0,50,334.18c10.54,23.26,25,43.14,48.14,55.51,3.81,2,7.64,4.07,11.45,6.12,18.79,10.12,38.75,15.72,60.19,16.05,18.64.29,37.28,1.4,55.92,1.25,8.89-.07,17.88-1.68,26.6-3.61,8.56-1.9,15.82-6.57,22-13,23.21-24.12,37.72-52.88,46.17-85A48.66,48.66,0,0,0,321.11,305.86Z"/>
  <path d="M465,260.67c-.41-26-1.14-52.16,5.89-77.44,9.29-33.37,19.88-66.09,41.25-94.56C526,70.24,539.71,52,556.46,36.09,573.74,19.7,593.44,6.92,617,3.23c29.7-4.64,59.13-2.82,86.3,12.55,8.69,4.91,17.56,9.52,26.44,14.1,20.57,10.61,39.94,23,55,40.81,15.69,18.57,26,40.34,33,63.36,4,13.11,1.87,27.08.24,40.62-.55,4.59-2,9.08-3.1,13.6-2.64,11-12.36,17.55-23.19,15.55-10.17-1.88-17.69-11.5-15.58-22.09,2.42-12.18-.72-23.87-1.18-35.78a8.92,8.92,0,0,0-.66-2.91c-11.18-27.79-26.38-52.34-53.88-67C706,68.32,691.87,60.19,677.26,53c-5.86-2.9-12.55-4.48-19-5.72-28.68-5.47-53.63,1-75.4,21.56a271.34,271.34,0,0,0-47.89,61.12c-8.92,15.28-13.7,33.1-19.4,50.1-6.86,20.43-8.08,41.74-7.74,63.16.2,13,.48,26,.19,39-.72,32.23,8.08,61.69,24.46,89.27,4.81,8.1,11.83,13.37,19.06,18.68,15.73,11.53,32.75,20.37,52,24.55a20.28,20.28,0,0,0,3.89.91c28.92.29,58,3,86.58-3.64,9.7-2.27,19.21-5.42,28.66-8.62a22.81,22.81,0,0,0,9.33-5.54c10.86-11.83,20.51-24.43,24.44-40.6,1.88-7.7,5-15.08,7.57-22.63a95.53,95.53,0,0,0,2.84-9.48c2.94-13.3,13.77-21.19,27.05-19.56,12.68,1.56,21.84,12.72,20.67,26.18a77.4,77.4,0,0,1-4,18.45c-3.69,10.68-8.14,21.09-12.27,31.61-8,20.33-21.22,36.95-37.54,51a67.76,67.76,0,0,1-20.75,11.65c-26.09,9.48-52.83,16.16-80.89,16-13-.09-26-.26-39,.11-25.66.74-48.24-8.9-70-20.77-10.18-5.55-19.65-12.5-29.11-19.29a94.57,94.57,0,0,1-26.62-29.31c-19.19-32.61-29.56-67.47-29.33-105.39C465,277.33,465,269,465,260.67Z"/>
</svg>
