<svg width="240" height="157" xmlns="http://www.w3.org/2000/svg" xmlns:xlink="http://www.w3.org/1999/xlink"><defs><path id="a" d="M.272.412H29.11v50.801H.27z"/><path id="c" d="M0 .358h239.567v90.865H0z"/></defs><g fill="none" fill-rule="evenodd"><path d="M66.274 129.985l-10.671-.485c-.162 3.473-.366 6.924-.465 10.378-.06 2.115.095 4.236.056 6.352-.037 1.952-.788 3.537-2.96 3.584-2.167.047-3.083-1.413-3.027-3.438.15-5.422.53-10.84.545-16.261.017-6.178-.298-12.356-.389-18.536-.03-2.1.07-4.219.32-6.303.226-1.875 1.348-3.108 3.348-2.82 2.054.294 2.414 1.885 2.418 3.716.012 5.602.085 11.204.139 17.233 3.606.162 7.015.417 10.42.361.511-.007 1.352-1.42 1.444-2.25.601-5.479 1.003-10.98 1.557-16.465.137-1.36.251-2.958 1.01-3.948.73-.954 2.373-1.842 3.44-1.666.795.13 1.955 2.075 1.848 3.092-1.043 9.943-2.449 19.846-3.47 29.79-.467 4.554-.41 9.174-.389 13.763.01 2.2.05 4.383-2.657 4.538-2.723.156-3.158-2.06-3.1-4.23.145-5.401.378-10.8.583-16.405M187.981 100.193c2.14.203 3.992.33 5.83.562 9.05 1.144 13.862 6.258 15.59 15.195 2.091 10.805-2.991 18.22-10.521 24.763-4.731 4.111-10.157 6.885-16.37 7.819-4.754.715-10.051-3.067-10.778-7.72-.16-1.025.899-2.98 1.77-3.234 1.052-.306 3.045.36 3.684 1.268 2.944 4.18 3.7 4.48 8.686 2.787 7.158-2.43 12.203-7.374 16.084-13.555 3.325-5.297 2.304-14.255-1.97-18.78-2.985-3.161-7.095-2.695-10.963-2.997-1.995-.157-4.104-.354-5.908-1.124-2.539-1.084-3.257-3.912-2.077-6.391 2.765-5.81 12.441-9.882 18.616-7.904 2.046.656 3.474 1.765 2.734 4.018-.686 2.09-2.411 2.168-4.377 1.645-4.093-1.087-6.77-.093-10.03 3.648" fill="currentColor"/><g transform="translate(4.017 104.435)"><mask id="b" fill="#fff"><use xlink:href="#a"/></mask><path d="M.633 33.518c1.099-8.933 3.296-17.493 9.007-24.66 2.2-2.762 5.035-5.024 7.653-7.433 1.407-1.297 3.043-1.443 4.34.115 1.298 1.557.68 2.952-.623 4.341-3.109 3.313-6.696 6.376-9.005 10.198-4.288 7.1-5.695 15.164-5.589 23.455.027 2.034 1.019 3.482 2.9 4.247 3.69 1.5 7.374 2.046 11.033-.134 1.492-.888 2.943-2.105 4.563-2.432 1.234-.251 3.193.275 3.913 1.184.57.72.23 3.255-.528 3.771-6.084 4.139-12.576 6.777-20.045 3.71C2.068 47.342-.12 43.824.328 37.078c.079-1.187.202-2.373.305-3.56" fill="currentColor" mask="url(#b)"/></g><path d="M60.242 17.109c-1.048.672-2.02 1.736-3.161 1.925-1.775.295-3.155-.887-2.799-2.514.218-.996 1.623-2.393 2.586-2.458 1.074-.073 2.251 1.16 3.383 1.824l-.009 1.223" fill="currentColor"/><g><mask id="d" fill="#fff"><use xlink:href="#c"/></mask><path d="M159.649 31.157c-1.413-3.574.499-6.18 4.977-6.493l-4.977 6.493M22.784 81.902c-.406.706-.995 1.338-1.6 1.897-2.238 2.074-4.221 1.907-5-.995-1.152-4.286-2.059-8.778-2.072-13.186-.013-4.464 2.72-7.657 7.245-9.04 2.182-.667 4.303-1.532 6.73-2.408 1.21 8.939-1.167 16.543-5.303 23.732m5.247-35.684v6.131l-5.14 1.363 5.14-7.494m209.312-17.515c-2.231-.412-4.582-.502-6.85-.333-4.61.344-9.187 1.135-13.798 1.418-7.674.473-15.38.487-23.042 1.077-7.282.56-14.523 1.648-21.792 2.417-1.757.186-3.55.028-5.401.028 1.453-2.654 2.932-4.903 3.957-7.34 1.37-3.255-.237-6.395-3.639-7.4-3.687-1.088-6.933.252-9.908 2.284-3.708 2.534-5.79 8.643-3.175 14.422-6.802 4.192-9.939 3.424-13.746-1.227-1.039-1.27-2.341-2.382-3.69-3.332-5.132-3.61-10.607-2.66-14.343 2.35-1.078 1.445-2.25 2.82-3.471 4.343-.792-1.565-1.333-2.845-2.051-4.016-2.41-3.932-5.689-4.477-9.287-1.533-.922.753-1.672 1.716-2.486 2.596-1.483 1.604-2.955 3.217-4.634 5.046-.439-1.225-.692-2.003-.993-2.762-2.446-6.178-7.137-7.09-11.687-2.247-1.512 1.61-2.931 3.306-4.664 5.27-.147-.592-.234-.837-.266-1.089-.37-2.84-1.042-5.603-4.188-6.559-2.985-.907-4.746 1.217-6.645 3.044-1.852 1.784-3.817 3.503-5.952 4.924-1.024.683-2.556.612-3.857.881-.163-1.13-.526-2.275-.446-3.388.14-1.934-.064-3.594-2.249-4.123-2.117-.512-3.217.705-3.983 2.527-3.88 9.225-11.068 13.928-21.147 15.079 0-2.67.165-5.255-.04-7.81-.286-3.559-.595-7.153-1.391-10.62-.45-1.955-2.302-3.181-4.528-2.876-2.115.29-2.654 1.968-2.948 3.824-.738 4.667-2 9.155-4.787 13.096-2.778 3.926-7.103 4.763-10.066 1.384-1.72-1.961-3.207-4.742-3.435-7.275-1.143-12.716 4.869-22.37 14.393-30.06 3.182-2.569 6.897-4.759 11.424-4.247 1.914.217 3.38-.363 3.651-2.44.274-2.082-1.105-2.957-2.902-3.383-3.89-.922-7.34.448-10.606 2.24C10.686 9.475 4.24 20.199.877 32.903c-1.09 4.116-1.385 8.611.414 12.793 2.603 6.048 6.482 10.61 13.284 10.734-1.491 1.936-3.52 3.652-4.358 5.822-3.39 8.773-1.968 17.375 2.04 25.593 1.259 2.583 3.833 3.653 6.814 3.32 3.933-.439 6.275-3.013 7.99-6.194 4.241-7.872 7.495-16.054 6.848-25.235-.147-2.085.526-2.808 2.663-3.105 8.124-1.13 14.851-4.887 19.97-11.35 8.77 5.44 13.764-1.547 19.592-5.969.186 1.417.283 2.614.507 3.788.774 4.053 4.358 5.51 7.695 3.041 1.4-1.035 2.583-2.37 3.814-3.618 1.476-1.497 2.897-3.046 4.491-4.73.385.943.656 1.521.862 2.121 2.355 6.848 6.544 7.884 11.7 2.823 1.96-1.926 3.774-4 5.894-6.263.617 1.374 1.084 2.442 1.574 3.499 2.166 4.669 6 5.442 9.757 1.868 1.399-1.332 2.595-2.883 3.822-4.385 2.581-3.163 4.646-3.356 7.627-.594.811.752 1.515 1.618 2.262 2.438 4.378 4.812 9.46 6.191 15.572 3.964 2.323-.845 4.445-2.223 6.722-3.214 1.026-.447 2.213-.77 3.32-.75 3.135.06 6.295.684 9.392.435 6.635-.534 13.218-1.732 19.855-2.2 15.043-1.061 30.11-1.798 45.156-2.838 1.14-.079 2.669-1.29 3.162-2.365.728-1.586-.203-3.3-1.975-3.628" fill="currentColor" mask="url(#d)"/></g><path d="M144.133 137.609c-1.995.84-3.786 1.205-5.347 1.114a7.237 7.237 0 01-1.483-.24 6.187 6.187 0 01-.643-.223 6.18 6.18 0 01-.93-.471 6.275 6.275 0 01-.292-.193c-2.024-1.43-3.284-4.186-3.631-8.18-.229-4.22.146-8.339 1.216-12.338a36.718 36.718 0 011.9-5.378c.476-1.076.86-2.086 2.604-1.829.808.119 2.045-.804 2.675-1.578 3.53-4.332 8.184-6.6 13.661-7.255 4.444-.531 5.84.598 6.83 4.94 2.414 10.568-6.37 27.345-16.56 31.631m22.322-32.038c-.954-7.569-4.63-10.61-12.188-10.276-2.496.11-4.876.578-7.293-.647-.844-.428-2.388-.288-3.24.208-2.453 1.43-5.12 2.817-6.985 4.853-8.104 8.85-10.472 19.616-10.201 30.573.223 1.337.343 2.063.467 2.789 1.725 10.11 9.351 14.174 18.78 9.767 10.991-5.137 22.731-20.821 20.66-37.267M106.279 123.527c-2.67.955-5.408 1.718-8.667 2.717l5.935-20.519.813-.04c1.078 5.386 2.197 10.765 3.166 16.172.086.485-.682 1.469-1.247 1.67m12.768 16.884c-1.253-3.192-2.53-6.415-3.327-9.738-1.935-8.055-3.419-16.221-5.466-24.244-.757-2.963-2.157-5.99-4.036-8.371-2.173-2.754-5.579-1.897-6.92 1.269-1.447 3.419-3.169 6.77-4.16 10.324-3.343 11.987-6.453 24.04-9.553 36.095-.509 1.978-.325 4.105 2.162 4.745 2.516.647 3.432-1.104 4.021-3.158 1.18-4.11 2.354-8.222 3.614-12.307.251-.812.715-1.942 1.357-2.186 3.867-1.466 7.815-2.717 12.09-4.159.354 1.384.558 2.379.866 3.34 1.22 3.793 2.315 7.64 3.778 11.336.706 1.783 2.421 2.684 4.374 1.605 1.875-1.035 1.965-2.605 1.2-4.551" fill="currentColor"/></g></svg>
